<svg xmlns="http://www.w3.org/2000/svg" width="96.354" height="135.593" viewBox="0 0 96.354 135.593">
  <g id="Group_6" data-name="Group 6" transform="translate(-608.743 -346.363)">
    <path id="Path_1" data-name="Path 1" d="M657.2,346.45q21.077,0,42.154,0c1.266,0,2.532-.107,3.8-.077,1.769.042,2.264.588,1.753,2.24a25.311,25.311,0,0,1-2.22,5.468,3.735,3.735,0,0,1-2.757,1.221c-4.64.14-9.286.109-13.929.107q-32.566-.012-65.133-.036c-2.355,0-2.823.5-2.815,2.889q.058,18.54.118,37.08c0,.421-.04.843-.064,1.263-.112,1.968.407,2.546,2.319,2.545q28.223,0,56.447-.013c1.869,0,3.739-.014,5.607,0,1.548.014,2.1.816,1.486,2.21-.868,1.979-1.831,3.916-2.662,5.909a2.244,2.244,0,0,1-2.354,1.544q-33.65-.052-67.3-.064c-2.408,0-2.858-.431-2.858-2.846q0-27.138.016-54.276c0-.662-.067-1.325-.064-1.987.012-2.859.408-3.255,3.228-3.255H657.2Z" fill="#fff"/>
    <path id="Path_2" data-name="Path 2" d="M657.146,611.014q-22.7,0-45.4,0c-2.586,0-2.945-.338-2.947-2.883q-.013-28.4-.022-56.8c0-2.158.552-2.635,3.1-2.635q26.138-.006,52.276,0,4.973,0,9.944-.035c1.493-.012,2.14.732,1.655,2.16-.6,1.755-1.263,3.493-2.016,5.187a3.518,3.518,0,0,1-3.553,2.246c-16.581-.042-33.162-.019-49.742-.018-1.8,0-2.359.589-2.357,2.352q.011,19.709-.016,39.418c0,1.526.892,1.979,2.208,1.978q11.3-.008,22.6-.026,28.308-.005,56.617,0c2.453,0,3.087.508,3.892,2.895.421,1.245,1.141,2.394,1.51,3.65.563,1.918,0,2.539-1.994,2.538q-22.88,0-45.761,0Z" transform="translate(-0.021 -129.084)" fill="#fff"/>
    <path id="Path_3" data-name="Path 3" d="M699.137,621.536q-15.549,0-31.1-.005c-2.393,0-3.008-.675-3-3q.028-9.041.01-18.082c-.007-2.765.652-3.434,3.386-3.36,1.084.03,2.17,0,3.254-.025,2.2-.052,2.787.485,2.787,2.729,0,3.194-.043,6.388-.067,9.583-.02,2.69.468,3.15,3.129,3.141q24.412-.091,48.825-.154c3.492-.009,3.488.022,4.785,3.3.486,1.228.931,2.478,1.511,3.661.743,1.516-.092,2.022-1.339,2.151a35.4,35.4,0,0,1-3.61.053q-14.286,0-28.571,0Z" transform="translate(-35.922 -159.971)" fill="#fff"/>
    <path id="Path_4" data-name="Path 4" d="M699.294,402.861q15.636,0,31.273,0c2.494,0,2.786.357,1.936,2.682a33.111,33.111,0,0,1-2.161,5.144A3.119,3.119,0,0,1,728,411.822c-7.953.1-15.907.1-23.86.1q-13.648,0-27.3-.042c-1.869,0-2.409.538-2.409,2.53,0,3.434.043,6.869.028,10.3-.009,2.144-.44,2.513-2.553,2.481-1.385-.02-2.771.029-4.156.017-1.984-.017-2.685-.746-2.682-2.754.01-6.146.036-12.292.028-18.438,0-2.723.4-3.171,3.1-3.171q15.547,0,31.094,0Z" transform="translate(-35.946 -36.038)" fill="#fff"/>
  </g>
</svg>
